<mxfile host="app.diagrams.net" agent="Mozilla/5.0 (Windows NT 10.0; Win64; x64) AppleWebKit/537.36 (KHTML, like Gecko) Chrome/131.0.0.0 Safari/537.36" version="25.0.3" pages="2">
  <diagram name="Cenário-1" id="Lw8xS93Y6cVusEl4nvlg">
    <mxGraphModel dx="1615" dy="949" grid="1" gridSize="10" guides="1" tooltips="1" connect="1" arrows="1" fold="1" page="1" pageScale="1" pageWidth="1169" pageHeight="827" math="0" shadow="0">
      <root>
        <mxCell id="0" />
        <mxCell id="1" parent="0" />
        <mxCell id="yrL1pBiuIUsNYzBa_2u3-9" style="edgeStyle=orthogonalEdgeStyle;rounded=0;orthogonalLoop=1;jettySize=auto;html=1;" edge="1" parent="1" source="yrL1pBiuIUsNYzBa_2u3-1" target="yrL1pBiuIUsNYzBa_2u3-3">
          <mxGeometry relative="1" as="geometry" />
        </mxCell>
        <mxCell id="yrL1pBiuIUsNYzBa_2u3-1" value="INICIO" style="strokeWidth=2;html=1;shape=mxgraph.flowchart.start_1;whiteSpace=wrap;" vertex="1" parent="1">
          <mxGeometry x="535" y="10" width="100" height="60" as="geometry" />
        </mxCell>
        <mxCell id="yrL1pBiuIUsNYzBa_2u3-10" style="edgeStyle=orthogonalEdgeStyle;rounded=0;orthogonalLoop=1;jettySize=auto;html=1;" edge="1" parent="1" source="yrL1pBiuIUsNYzBa_2u3-3" target="yrL1pBiuIUsNYzBa_2u3-4">
          <mxGeometry relative="1" as="geometry" />
        </mxCell>
        <mxCell id="yrL1pBiuIUsNYzBa_2u3-3" value="CARGO" style="html=1;strokeWidth=2;shape=manualInput;whiteSpace=wrap;rounded=1;size=26;arcSize=11;" vertex="1" parent="1">
          <mxGeometry x="534" y="100" width="100" height="60" as="geometry" />
        </mxCell>
        <mxCell id="yrL1pBiuIUsNYzBa_2u3-11" style="edgeStyle=orthogonalEdgeStyle;rounded=0;orthogonalLoop=1;jettySize=auto;html=1;" edge="1" parent="1" source="yrL1pBiuIUsNYzBa_2u3-4" target="yrL1pBiuIUsNYzBa_2u3-5">
          <mxGeometry relative="1" as="geometry" />
        </mxCell>
        <mxCell id="yrL1pBiuIUsNYzBa_2u3-4" value="DEPTO" style="html=1;strokeWidth=2;shape=manualInput;whiteSpace=wrap;rounded=1;size=26;arcSize=11;" vertex="1" parent="1">
          <mxGeometry x="534" y="190" width="100" height="60" as="geometry" />
        </mxCell>
        <mxCell id="U0v8ZKGH1vH1WXeY5LKz-2" style="edgeStyle=orthogonalEdgeStyle;rounded=0;orthogonalLoop=1;jettySize=auto;html=1;" edge="1" parent="1" source="yrL1pBiuIUsNYzBa_2u3-5" target="U0v8ZKGH1vH1WXeY5LKz-1">
          <mxGeometry relative="1" as="geometry" />
        </mxCell>
        <mxCell id="U0v8ZKGH1vH1WXeY5LKz-5" value="SIM" style="edgeLabel;html=1;align=center;verticalAlign=middle;resizable=0;points=[];" vertex="1" connectable="0" parent="U0v8ZKGH1vH1WXeY5LKz-2">
          <mxGeometry x="0.0062" y="-2" relative="1" as="geometry">
            <mxPoint as="offset" />
          </mxGeometry>
        </mxCell>
        <mxCell id="U0v8ZKGH1vH1WXeY5LKz-8" style="edgeStyle=orthogonalEdgeStyle;rounded=0;orthogonalLoop=1;jettySize=auto;html=1;" edge="1" parent="1" source="yrL1pBiuIUsNYzBa_2u3-5" target="U0v8ZKGH1vH1WXeY5LKz-7">
          <mxGeometry relative="1" as="geometry" />
        </mxCell>
        <mxCell id="U0v8ZKGH1vH1WXeY5LKz-11" value="NÃO" style="edgeLabel;html=1;align=center;verticalAlign=middle;resizable=0;points=[];" vertex="1" connectable="0" parent="U0v8ZKGH1vH1WXeY5LKz-8">
          <mxGeometry x="-0.2135" y="-1" relative="1" as="geometry">
            <mxPoint as="offset" />
          </mxGeometry>
        </mxCell>
        <mxCell id="yrL1pBiuIUsNYzBa_2u3-5" value="CARGO=&quot;GERENTE&quot;" style="strokeWidth=2;html=1;shape=mxgraph.flowchart.decision;whiteSpace=wrap;" vertex="1" parent="1">
          <mxGeometry x="496.5" y="290" width="175" height="66.5" as="geometry" />
        </mxCell>
        <mxCell id="U0v8ZKGH1vH1WXeY5LKz-4" style="edgeStyle=orthogonalEdgeStyle;rounded=0;orthogonalLoop=1;jettySize=auto;html=1;exitX=0.5;exitY=1;exitDx=0;exitDy=0;exitPerimeter=0;" edge="1" parent="1" source="yrL1pBiuIUsNYzBa_2u3-6" target="yrL1pBiuIUsNYzBa_2u3-7">
          <mxGeometry relative="1" as="geometry" />
        </mxCell>
        <mxCell id="yrL1pBiuIUsNYzBa_2u3-6" value="&quot;RECEBE BÔNUS&quot;" style="strokeWidth=2;html=1;shape=mxgraph.flowchart.display;whiteSpace=wrap;" vertex="1" parent="1">
          <mxGeometry x="509" y="510" width="150" height="90" as="geometry" />
        </mxCell>
        <mxCell id="yrL1pBiuIUsNYzBa_2u3-14" style="edgeStyle=orthogonalEdgeStyle;rounded=0;orthogonalLoop=1;jettySize=auto;html=1;" edge="1" parent="1" source="yrL1pBiuIUsNYzBa_2u3-7" target="yrL1pBiuIUsNYzBa_2u3-8">
          <mxGeometry relative="1" as="geometry" />
        </mxCell>
        <mxCell id="yrL1pBiuIUsNYzBa_2u3-7" value="" style="verticalLabelPosition=bottom;verticalAlign=top;html=1;shape=mxgraph.flowchart.on-page_reference;" vertex="1" parent="1">
          <mxGeometry x="562" y="630" width="46" height="40" as="geometry" />
        </mxCell>
        <mxCell id="yrL1pBiuIUsNYzBa_2u3-8" value="FIM" style="strokeWidth=2;html=1;shape=mxgraph.flowchart.start_1;whiteSpace=wrap;" vertex="1" parent="1">
          <mxGeometry x="534" y="710" width="100" height="60" as="geometry" />
        </mxCell>
        <mxCell id="U0v8ZKGH1vH1WXeY5LKz-3" style="edgeStyle=orthogonalEdgeStyle;rounded=0;orthogonalLoop=1;jettySize=auto;html=1;" edge="1" parent="1" source="U0v8ZKGH1vH1WXeY5LKz-1" target="yrL1pBiuIUsNYzBa_2u3-6">
          <mxGeometry relative="1" as="geometry" />
        </mxCell>
        <mxCell id="U0v8ZKGH1vH1WXeY5LKz-6" value="SIM" style="edgeLabel;html=1;align=center;verticalAlign=middle;resizable=0;points=[];" vertex="1" connectable="0" parent="U0v8ZKGH1vH1WXeY5LKz-3">
          <mxGeometry x="-0.0423" y="-1" relative="1" as="geometry">
            <mxPoint y="1" as="offset" />
          </mxGeometry>
        </mxCell>
        <mxCell id="U0v8ZKGH1vH1WXeY5LKz-1" value="&lt;div&gt;DEPTO=&quot;TIC&quot;&lt;/div&gt;" style="strokeWidth=2;html=1;shape=mxgraph.flowchart.decision;whiteSpace=wrap;" vertex="1" parent="1">
          <mxGeometry x="476.5" y="400" width="215" height="70" as="geometry" />
        </mxCell>
        <mxCell id="U0v8ZKGH1vH1WXeY5LKz-7" value="" style="verticalLabelPosition=bottom;verticalAlign=top;html=1;shape=mxgraph.flowchart.on-page_reference;" vertex="1" parent="1">
          <mxGeometry x="920" y="360" width="46" height="40" as="geometry" />
        </mxCell>
        <mxCell id="U0v8ZKGH1vH1WXeY5LKz-9" style="edgeStyle=orthogonalEdgeStyle;rounded=0;orthogonalLoop=1;jettySize=auto;html=1;entryX=0.5;entryY=1;entryDx=0;entryDy=0;entryPerimeter=0;" edge="1" parent="1" source="U0v8ZKGH1vH1WXeY5LKz-1" target="U0v8ZKGH1vH1WXeY5LKz-7">
          <mxGeometry relative="1" as="geometry" />
        </mxCell>
        <mxCell id="U0v8ZKGH1vH1WXeY5LKz-10" value="NÃO" style="edgeLabel;html=1;align=center;verticalAlign=middle;resizable=0;points=[];" vertex="1" connectable="0" parent="U0v8ZKGH1vH1WXeY5LKz-9">
          <mxGeometry x="-0.1325" y="6" relative="1" as="geometry">
            <mxPoint as="offset" />
          </mxGeometry>
        </mxCell>
        <mxCell id="U0v8ZKGH1vH1WXeY5LKz-12" style="edgeStyle=orthogonalEdgeStyle;rounded=0;orthogonalLoop=1;jettySize=auto;html=1;entryX=1;entryY=0.5;entryDx=0;entryDy=0;entryPerimeter=0;" edge="1" parent="1" source="U0v8ZKGH1vH1WXeY5LKz-7" target="yrL1pBiuIUsNYzBa_2u3-7">
          <mxGeometry relative="1" as="geometry">
            <Array as="points">
              <mxPoint x="1090" y="380" />
              <mxPoint x="1090" y="650" />
            </Array>
          </mxGeometry>
        </mxCell>
      </root>
    </mxGraphModel>
  </diagram>
  <diagram id="edVuwwpIsazkmVVGf_Pp" name="Cenário-2">
    <mxGraphModel dx="840" dy="494" grid="1" gridSize="10" guides="1" tooltips="1" connect="1" arrows="1" fold="1" page="1" pageScale="1" pageWidth="1169" pageHeight="827" math="0" shadow="0">
      <root>
        <mxCell id="0" />
        <mxCell id="1" parent="0" />
        <mxCell id="K9m4KGDcXm7wy1FUU18J-1" style="edgeStyle=orthogonalEdgeStyle;rounded=0;orthogonalLoop=1;jettySize=auto;html=1;" edge="1" parent="1" source="K9m4KGDcXm7wy1FUU18J-2" target="K9m4KGDcXm7wy1FUU18J-4">
          <mxGeometry relative="1" as="geometry" />
        </mxCell>
        <mxCell id="K9m4KGDcXm7wy1FUU18J-2" value="INICIO" style="strokeWidth=2;html=1;shape=mxgraph.flowchart.start_1;whiteSpace=wrap;" vertex="1" parent="1">
          <mxGeometry x="535" y="10" width="100" height="60" as="geometry" />
        </mxCell>
        <mxCell id="K9m4KGDcXm7wy1FUU18J-3" style="edgeStyle=orthogonalEdgeStyle;rounded=0;orthogonalLoop=1;jettySize=auto;html=1;" edge="1" parent="1" source="K9m4KGDcXm7wy1FUU18J-4" target="K9m4KGDcXm7wy1FUU18J-6">
          <mxGeometry relative="1" as="geometry" />
        </mxCell>
        <mxCell id="K9m4KGDcXm7wy1FUU18J-4" value="CARGO" style="html=1;strokeWidth=2;shape=manualInput;whiteSpace=wrap;rounded=1;size=26;arcSize=11;" vertex="1" parent="1">
          <mxGeometry x="534" y="90" width="100" height="60" as="geometry" />
        </mxCell>
        <mxCell id="K9m4KGDcXm7wy1FUU18J-5" style="edgeStyle=orthogonalEdgeStyle;rounded=0;orthogonalLoop=1;jettySize=auto;html=1;" edge="1" parent="1" source="K9m4KGDcXm7wy1FUU18J-6" target="K9m4KGDcXm7wy1FUU18J-11">
          <mxGeometry relative="1" as="geometry" />
        </mxCell>
        <mxCell id="K9m4KGDcXm7wy1FUU18J-6" value="DEPTO" style="html=1;strokeWidth=2;shape=manualInput;whiteSpace=wrap;rounded=1;size=26;arcSize=11;" vertex="1" parent="1">
          <mxGeometry x="535" y="180" width="100" height="60" as="geometry" />
        </mxCell>
        <mxCell id="K9m4KGDcXm7wy1FUU18J-7" style="edgeStyle=orthogonalEdgeStyle;rounded=0;orthogonalLoop=1;jettySize=auto;html=1;" edge="1" parent="1" source="K9m4KGDcXm7wy1FUU18J-11" target="K9m4KGDcXm7wy1FUU18J-19">
          <mxGeometry relative="1" as="geometry" />
        </mxCell>
        <mxCell id="K9m4KGDcXm7wy1FUU18J-8" value="SIM" style="edgeLabel;html=1;align=center;verticalAlign=middle;resizable=0;points=[];" vertex="1" connectable="0" parent="K9m4KGDcXm7wy1FUU18J-7">
          <mxGeometry x="0.0062" y="-2" relative="1" as="geometry">
            <mxPoint as="offset" />
          </mxGeometry>
        </mxCell>
        <mxCell id="K9m4KGDcXm7wy1FUU18J-9" style="edgeStyle=orthogonalEdgeStyle;rounded=0;orthogonalLoop=1;jettySize=auto;html=1;" edge="1" parent="1" source="K9m4KGDcXm7wy1FUU18J-11" target="K9m4KGDcXm7wy1FUU18J-20">
          <mxGeometry relative="1" as="geometry">
            <Array as="points">
              <mxPoint x="943" y="293" />
            </Array>
          </mxGeometry>
        </mxCell>
        <mxCell id="K9m4KGDcXm7wy1FUU18J-10" value="NÃO" style="edgeLabel;html=1;align=center;verticalAlign=middle;resizable=0;points=[];" vertex="1" connectable="0" parent="K9m4KGDcXm7wy1FUU18J-9">
          <mxGeometry x="-0.2135" y="-1" relative="1" as="geometry">
            <mxPoint as="offset" />
          </mxGeometry>
        </mxCell>
        <mxCell id="K9m4KGDcXm7wy1FUU18J-11" value="CARGO=&quot;GERENTE&quot;" style="strokeWidth=2;html=1;shape=mxgraph.flowchart.decision;whiteSpace=wrap;" vertex="1" parent="1">
          <mxGeometry x="496.5" y="260" width="175" height="66.5" as="geometry" />
        </mxCell>
        <mxCell id="K9m4KGDcXm7wy1FUU18J-13" value="&quot;RECEBE BÔNUS&quot;" style="strokeWidth=2;html=1;shape=mxgraph.flowchart.display;whiteSpace=wrap;" vertex="1" parent="1">
          <mxGeometry x="320" y="580" width="110" height="60" as="geometry" />
        </mxCell>
        <mxCell id="K9m4KGDcXm7wy1FUU18J-40" style="edgeStyle=orthogonalEdgeStyle;rounded=0;orthogonalLoop=1;jettySize=auto;html=1;" edge="1" parent="1" source="K9m4KGDcXm7wy1FUU18J-15" target="K9m4KGDcXm7wy1FUU18J-39">
          <mxGeometry relative="1" as="geometry" />
        </mxCell>
        <mxCell id="K9m4KGDcXm7wy1FUU18J-15" value="" style="verticalLabelPosition=bottom;verticalAlign=top;html=1;shape=mxgraph.flowchart.on-page_reference;" vertex="1" parent="1">
          <mxGeometry x="562" y="640" width="46" height="40" as="geometry" />
        </mxCell>
        <mxCell id="K9m4KGDcXm7wy1FUU18J-16" value="FIM" style="strokeWidth=2;html=1;shape=mxgraph.flowchart.start_1;whiteSpace=wrap;" vertex="1" parent="1">
          <mxGeometry x="542.75" y="790" width="86" height="30" as="geometry" />
        </mxCell>
        <mxCell id="K9m4KGDcXm7wy1FUU18J-27" style="edgeStyle=orthogonalEdgeStyle;rounded=0;orthogonalLoop=1;jettySize=auto;html=1;entryX=0.5;entryY=0;entryDx=0;entryDy=0;" edge="1" parent="1" source="K9m4KGDcXm7wy1FUU18J-19" target="K9m4KGDcXm7wy1FUU18J-24">
          <mxGeometry relative="1" as="geometry" />
        </mxCell>
        <mxCell id="K9m4KGDcXm7wy1FUU18J-42" value="SIM" style="edgeLabel;html=1;align=center;verticalAlign=middle;resizable=0;points=[];" vertex="1" connectable="0" parent="K9m4KGDcXm7wy1FUU18J-27">
          <mxGeometry x="-0.5968" y="1" relative="1" as="geometry">
            <mxPoint y="2" as="offset" />
          </mxGeometry>
        </mxCell>
        <mxCell id="K9m4KGDcXm7wy1FUU18J-19" value="&lt;div&gt;DEPTO=&quot;TIC&quot;&lt;/div&gt;" style="strokeWidth=2;html=1;shape=mxgraph.flowchart.decision;whiteSpace=wrap;" vertex="1" parent="1">
          <mxGeometry x="500" y="360" width="171.5" height="70" as="geometry" />
        </mxCell>
        <mxCell id="K9m4KGDcXm7wy1FUU18J-37" style="edgeStyle=orthogonalEdgeStyle;rounded=0;orthogonalLoop=1;jettySize=auto;html=1;entryX=1;entryY=0.5;entryDx=0;entryDy=0;entryPerimeter=0;" edge="1" parent="1" source="K9m4KGDcXm7wy1FUU18J-20" target="K9m4KGDcXm7wy1FUU18J-39">
          <mxGeometry relative="1" as="geometry">
            <mxPoint x="970" y="770.6667073567709" as="targetPoint" />
            <Array as="points">
              <mxPoint x="1060" y="340" />
              <mxPoint x="1060" y="740" />
            </Array>
          </mxGeometry>
        </mxCell>
        <mxCell id="K9m4KGDcXm7wy1FUU18J-20" value="" style="verticalLabelPosition=bottom;verticalAlign=top;html=1;shape=mxgraph.flowchart.on-page_reference;" vertex="1" parent="1">
          <mxGeometry x="920" y="320" width="46" height="40" as="geometry" />
        </mxCell>
        <mxCell id="K9m4KGDcXm7wy1FUU18J-21" style="edgeStyle=orthogonalEdgeStyle;rounded=0;orthogonalLoop=1;jettySize=auto;html=1;entryX=0.5;entryY=1;entryDx=0;entryDy=0;entryPerimeter=0;" edge="1" parent="1" source="K9m4KGDcXm7wy1FUU18J-19" target="K9m4KGDcXm7wy1FUU18J-20">
          <mxGeometry relative="1" as="geometry">
            <Array as="points">
              <mxPoint x="943" y="395" />
            </Array>
          </mxGeometry>
        </mxCell>
        <mxCell id="K9m4KGDcXm7wy1FUU18J-22" value="NÃO" style="edgeLabel;html=1;align=center;verticalAlign=middle;resizable=0;points=[];" vertex="1" connectable="0" parent="K9m4KGDcXm7wy1FUU18J-21">
          <mxGeometry x="-0.1325" y="6" relative="1" as="geometry">
            <mxPoint as="offset" />
          </mxGeometry>
        </mxCell>
        <mxCell id="K9m4KGDcXm7wy1FUU18J-30" style="edgeStyle=orthogonalEdgeStyle;rounded=0;orthogonalLoop=1;jettySize=auto;html=1;" edge="1" parent="1" source="K9m4KGDcXm7wy1FUU18J-24">
          <mxGeometry relative="1" as="geometry">
            <mxPoint x="585.75" y="520" as="targetPoint" />
          </mxGeometry>
        </mxCell>
        <mxCell id="K9m4KGDcXm7wy1FUU18J-24" value="IDADE" style="shape=parallelogram;html=1;strokeWidth=2;perimeter=parallelogramPerimeter;whiteSpace=wrap;rounded=1;arcSize=12;size=0.23;" vertex="1" parent="1">
          <mxGeometry x="512.75" y="460" width="146" height="40" as="geometry" />
        </mxCell>
        <mxCell id="K9m4KGDcXm7wy1FUU18J-25" value="&lt;div&gt;IDADE &amp;gt; 60&lt;/div&gt;" style="strokeWidth=2;html=1;shape=mxgraph.flowchart.decision;whiteSpace=wrap;" vertex="1" parent="1">
          <mxGeometry x="509.5" y="520" width="152.5" height="70" as="geometry" />
        </mxCell>
        <mxCell id="K9m4KGDcXm7wy1FUU18J-31" style="edgeStyle=orthogonalEdgeStyle;rounded=0;orthogonalLoop=1;jettySize=auto;html=1;entryX=0.5;entryY=0;entryDx=0;entryDy=0;entryPerimeter=0;" edge="1" parent="1" source="K9m4KGDcXm7wy1FUU18J-25" target="K9m4KGDcXm7wy1FUU18J-13">
          <mxGeometry relative="1" as="geometry" />
        </mxCell>
        <mxCell id="K9m4KGDcXm7wy1FUU18J-43" value="F" style="edgeLabel;html=1;align=center;verticalAlign=middle;resizable=0;points=[];" vertex="1" connectable="0" parent="K9m4KGDcXm7wy1FUU18J-31">
          <mxGeometry x="-0.2947" y="1" relative="1" as="geometry">
            <mxPoint as="offset" />
          </mxGeometry>
        </mxCell>
        <mxCell id="K9m4KGDcXm7wy1FUU18J-33" value="&quot;RECEBE BÔNUS PLUS&quot;" style="strokeWidth=2;html=1;shape=mxgraph.flowchart.display;whiteSpace=wrap;align=center;" vertex="1" parent="1">
          <mxGeometry x="700" y="580" width="140" height="60" as="geometry" />
        </mxCell>
        <mxCell id="K9m4KGDcXm7wy1FUU18J-34" style="edgeStyle=orthogonalEdgeStyle;rounded=0;orthogonalLoop=1;jettySize=auto;html=1;entryX=0.626;entryY=0.008;entryDx=0;entryDy=0;entryPerimeter=0;" edge="1" parent="1" source="K9m4KGDcXm7wy1FUU18J-25" target="K9m4KGDcXm7wy1FUU18J-33">
          <mxGeometry relative="1" as="geometry" />
        </mxCell>
        <mxCell id="K9m4KGDcXm7wy1FUU18J-44" value="V" style="edgeLabel;html=1;align=center;verticalAlign=middle;resizable=0;points=[];" vertex="1" connectable="0" parent="K9m4KGDcXm7wy1FUU18J-34">
          <mxGeometry x="-0.2044" y="-2" relative="1" as="geometry">
            <mxPoint as="offset" />
          </mxGeometry>
        </mxCell>
        <mxCell id="K9m4KGDcXm7wy1FUU18J-35" style="edgeStyle=orthogonalEdgeStyle;rounded=0;orthogonalLoop=1;jettySize=auto;html=1;entryX=1;entryY=0.5;entryDx=0;entryDy=0;entryPerimeter=0;" edge="1" parent="1" source="K9m4KGDcXm7wy1FUU18J-33" target="K9m4KGDcXm7wy1FUU18J-15">
          <mxGeometry relative="1" as="geometry">
            <Array as="points">
              <mxPoint x="780" y="660" />
            </Array>
          </mxGeometry>
        </mxCell>
        <mxCell id="K9m4KGDcXm7wy1FUU18J-36" style="edgeStyle=orthogonalEdgeStyle;rounded=0;orthogonalLoop=1;jettySize=auto;html=1;entryX=0;entryY=0.5;entryDx=0;entryDy=0;entryPerimeter=0;" edge="1" parent="1" source="K9m4KGDcXm7wy1FUU18J-13" target="K9m4KGDcXm7wy1FUU18J-15">
          <mxGeometry relative="1" as="geometry">
            <Array as="points">
              <mxPoint x="380" y="660" />
            </Array>
          </mxGeometry>
        </mxCell>
        <mxCell id="K9m4KGDcXm7wy1FUU18J-41" style="edgeStyle=orthogonalEdgeStyle;rounded=0;orthogonalLoop=1;jettySize=auto;html=1;" edge="1" parent="1" source="K9m4KGDcXm7wy1FUU18J-39" target="K9m4KGDcXm7wy1FUU18J-16">
          <mxGeometry relative="1" as="geometry" />
        </mxCell>
        <mxCell id="K9m4KGDcXm7wy1FUU18J-39" value="" style="verticalLabelPosition=bottom;verticalAlign=top;html=1;shape=mxgraph.flowchart.on-page_reference;" vertex="1" parent="1">
          <mxGeometry x="562" y="720" width="46" height="40" as="geometry" />
        </mxCell>
      </root>
    </mxGraphModel>
  </diagram>
</mxfile>
